<svg xmlns="http://www.w3.org/2000/svg" width="400" height="400" viewBox="0 0 400 400" role="img" aria-label="Photo coming soon">
  <rect width="400" height="400" fill="#f1ede7"/>
  <g fill="#c9bdab">
    <path d="M200 120c-14 0-26 6-35 16-7-14-19-30-33-30-6 0-9 6-7 11 5 14 9 26 10 40-9 13-14 28-14 45 0 49 36 78 79 78s79-29 79-78c0-17-5-32-14-45 1-14 5-26 10-40 2-5-1-11-7-11-14 0-26 16-33 30-9-10-21-16-35-16z"/>
  </g>
  <g fill="#fff">
    <circle cx="172" cy="240" r="9"/>
    <circle cx="228" cy="240" r="9"/>
  </g>
  <g fill="#8a7d68">
    <circle cx="172" cy="240" r="4"/>
    <circle cx="228" cy="240" r="4"/>
    <path d="M193 262h14l-7 8z"/>
  </g>
  <text x="200" y="330" font-family="Arial, sans-serif" font-size="22" fill="#9a8e79" text-anchor="middle">Photo coming soon</text>
</svg>
